<?xml version="1.0" encoding="utf-8"?>
<svg viewBox="37.9634 772.5016 594.759 623.6143" xmlns="http://www.w3.org/2000/svg">
  <g transform="matrix(1.470973014831543, 0, 0.012876000255346298, 1.4709030389785767, -613.9686889648439, 718.712463378906)" style="">
    <g id="g-1" transform="matrix(0.222004, 0, 0, 0.222004, 148.703705, 149.345062)">
      <g id="g-2" style="fill:#000000" transform="matrix(1.4 0 0 1.4 50.323 -336.14)"/>
      <g transform="matrix(3.141099, 0, 0, 3.14184, 1423.243896, -345.216675)" style="">
        <g>
          <path d="M 496.807 318.889 C 493.765 292.868 484.47 266.938 475.482 241.862 C 464.662 211.674 454.441 183.159 454.441 155.256 C 454.441 138.883 469.772 122.235 475.63 117.242 L 384.293 0.222 L 372.483 12.05 C 372.091 12.443 332.504 50.857 264.13 12.766 L 256.001 8.238 L 247.872 12.766 C 181.168 49.929 141.906 14.316 139.476 12.007 L 127.929 0 L 22.401 105.526 L 36.369 117.242 C 41.867 121.853 57.558 138.732 57.558 155.256 C 57.558 183.161 47.337 211.675 36.517 241.862 C 27.529 266.938 18.234 292.868 15.192 318.889 C 11.566 349.903 17.418 376.742 33.082 400.937 C 66.338 452.307 121.352 465.835 169.891 477.772 C 198.983 484.927 226.461 491.684 246.535 505.491 L 256 512 L 265.464 505.491 C 285.538 491.686 313.017 484.927 342.108 477.772 C 390.647 465.835 445.661 452.307 478.917 400.938 C 494.581 376.742 500.434 349.904 496.807 318.889 Z" style="stroke-width: 72.5537px; paint-order: fill;"/>
          <path d="M 509.369 420.653 C 488.259 451.094 458.84 474.176 431.703 486.96 C 404.48 499.784 375.041 507.031 350.772 512.999 C 321.681 520.154 300.15 524.244 286.021 535.381 L 256.001 556.028 L 225.977 535.38 C 211.851 524.242 190.32 520.154 161.228 512.999 C 136.958 507.031 107.519 499.784 80.296 486.96 C 53.159 474.176 23.74 451.093 2.63 420.652 C -6.69 405.743 -14.865 387.057 -18.541 370.198 C -22.186 353.481 -22.762 332.987 -20.839 314.677 C -16.856 284.641 -6.62 254.697 2.368 229.622 C 13.188 199.434 21.281 177.041 21.281 155.256 C 21.281 155.218 21.285 155.191 21.29 155.174 C 21.124 155.064 20.564 154.469 18.913 152.012 C 16.182 147.946 14.545 146.179 13.056 145.036 L -31.25 107.873 L 128.435 -51.809 L 154.077 -25.146 C 154.077 -25.146 164.464 -14.291 164.464 -14.291 C 165.39 -13.406 168.181 -10.515 178.248 -8.035 C 184.858 -6.407 189.102 -6.004 198.06 -7.27 C 208.181 -8.7 216.89 -11.081 230.219 -18.926 L 256.001 -33.287 L 281.785 -18.925 C 295.422 -10.882 304.282 -8.539 314.569 -7.19 C 323.638 -6 327.892 -6.477 334.524 -8.231 C 340.032 -9.688 342.154 -10.786 345.595 -12.965 C 347.29 -14.038 346.975 -13.753 346.863 -13.633 L 384.273 -51.101 L 543.249 107.873 L 512.911 133.32 L 499.162 144.851 C 497.427 146.233 495.706 148.088 493.003 152.134 C 491.451 154.457 490.891 155.071 490.713 155.194 C 490.716 155.21 490.718 155.23 490.718 155.256 C 490.718 177.039 498.811 199.434 509.631 229.622 C 518.619 254.697 528.855 284.641 532.838 314.676 C 534.761 332.988 534.185 353.481 530.54 370.199 C 526.864 387.058 518.689 405.744 509.369 420.653 Z M 116.13 110.34 C 116.535 111.264 117.081 112.511 117.803 114.162 C 122.971 125.985 120.155 120.016 121.269 123.279 L 390.839 124.201 C 391.887 121.039 389.111 127.381 394.127 115.321 C 395.049 113.104 395.683 111.586 396.106 110.578 L 375.192 89.663 C 371.923 90.924 379.949 88.525 365.118 93.198 C 352.017 96.89 331.554 100.341 310.739 98.871 C 291.094 97.484 281.237 97.711 256.035 85.671 C 236.167 93.37 220.905 97.483 201.26 98.87 C 180.446 100.34 159.984 96.89 146.884 93.199 C 132.052 88.526 140.078 90.924 136.808 89.663 Z M 427.353 346.046 C 428.643 339.146 428.628 334.411 427.547 325.924 C 425.313 308.374 418.568 289.589 409.888 265.376 C 402.309 244.163 402.051 243.792 398.787 232.837 L 114.305 232.525 C 110.146 244.551 108.543 246.449 102.11 265.374 C 93.431 289.587 86.686 308.374 84.451 325.925 C 83.371 334.412 83.355 339.147 84.645 346.047 C 85.952 353.034 86.9 356.568 91.573 363.071 C 100.057 378.393 110.041 384.186 126.838 391.851 C 143.869 399.624 163.21 404.374 186.529 410.11 C 213.511 416.743 232.703 421.905 255.999 431.903 C 279.296 421.905 298.49 416.744 325.468 410.11 C 348.787 404.375 368.129 399.624 385.161 391.85 C 401.958 384.185 411.942 378.393 420.424 363.072 C 425.099 356.568 426.047 353.033 427.353 346.046 Z" style="fill: none;"/>
          <path d="M 479.337 401.21 C 445.931 452.686 390.766 466.321 342.227 478.258 C 313.136 485.413 285.739 492.135 265.747 505.903 L 256 512.607 L 246.252 505.903 C 226.26 492.133 198.864 485.413 169.772 478.258 C 121.233 466.321 66.068 452.686 32.662 401.209 C 16.964 376.931 11.073 349.927 14.695 318.831 C 17.75 292.755 27.058 266.769 36.046 241.693 C 46.866 211.506 57.058 183.077 57.058 155.256 C 57.058 138.902 41.523 122.215 36.048 117.625 L 21.662 105.558 L 127.936 -0.714 L 139.829 11.652 C 141.077 12.837 151.349 22.185 169.691 26.703 C 188.087 31.234 214.395 30.879 247.629 12.329 L 256.001 7.666 L 264.373 12.329 C 298.438 31.343 325.241 31.231 343.672 26.356 C 362.046 21.496 371.936 11.89 372.129 11.697 L 384.293 -0.485 L 490.337 105.558 L 475.953 117.624 C 470.115 122.598 454.941 139.052 454.941 155.256 C 454.941 183.075 465.133 211.505 475.953 241.693 C 484.941 266.769 494.249 292.755 497.304 318.831 C 500.927 349.928 495.035 376.931 479.337 401.21 Z M 496.31 318.947 C 493.281 292.981 483.999 267.107 475.011 242.031 C 464.191 211.843 453.941 183.243 453.941 155.256 C 453.941 138.714 469.426 121.875 475.306 116.861 L 488.859 105.494 L 384.293 0.929 L 372.837 12.403 C 372.638 12.603 362.539 22.4 343.928 27.323 C 325.374 32.23 298.196 32.28 263.887 13.203 L 256.001 8.81 L 248.115 13.203 C 214.645 31.816 187.97 32.236 169.452 27.674 C 150.879 23.099 140.351 13.528 139.132 12.369 L 127.922 0.714 L 23.14 105.494 L 36.69 116.859 C 42.211 121.491 58.058 138.562 58.058 155.256 C 58.058 183.245 47.808 211.844 36.988 242.031 C 28 267.107 18.718 292.981 15.689 318.947 C 12.059 349.879 17.872 376.553 33.502 400.665 C 66.608 451.928 121.471 465.349 170.01 477.286 C 199.102 484.441 226.662 491.235 246.818 505.079 L 256 511.393 L 265.181 505.079 C 285.337 491.237 312.898 484.441 341.989 477.286 C 390.528 465.349 445.391 451.928 478.497 400.666 C 494.127 376.553 499.941 349.88 496.31 318.947 Z M 129.519 45.492 C 136.313 49.771 145.575 54.498 157.221 57.904 C 178.986 64.285 213.198 67.037 255.777 45.785 L 256 45.674 L 256.223 45.785 C 298.802 67.039 333.012 64.286 354.779 57.904 C 366.425 54.497 375.687 49.77 382.481 45.492 L 382.818 45.279 L 442.179 104.64 L 441.89 104.99 C 432.993 115.781 422.645 132.329 421.63 152.024 L 421.606 152.497 L 90.392 152.497 L 90.368 152.023 C 89.354 132.33 79.006 115.781 70.108 104.99 L 69.819 104.64 L 129.182 45.279 Z M 71.168 104.705 C 80.036 115.555 90.112 131.773 91.339 151.497 L 420.659 151.497 C 421.883 131.778 431.96 115.56 440.83 104.705 L 382.675 46.55 C 375.872 50.795 366.793 55.423 355.061 58.864 C 333.192 65.264 298.841 68.096 256 46.791 C 213.262 67.974 178.806 65.263 156.939 58.864 C 145.207 55.424 136.128 50.796 129.325 46.55 Z M 451.297 383.058 C 425.092 423.412 380.889 434.353 334.25 445.823 C 307.273 452.457 279.55 459.266 256.246 472.494 L 255.999 472.634 L 255.752 472.494 C 232.448 459.266 204.727 452.456 177.748 445.823 C 131.11 434.353 86.908 423.414 60.701 383.058 C 35.166 343.434 50.131 301.391 67.489 252.965 C 75.393 230.913 83.47 208.377 87.614 185.312 L 87.688 184.9 L 424.309 184.9 L 424.383 185.312 C 428.527 208.377 436.604 230.913 444.508 252.965 C 461.868 301.391 476.833 343.432 451.297 383.058 Z M 443.566 253.303 C 435.662 231.251 427.661 208.903 423.473 185.9 L 88.524 185.9 C 84.336 208.903 76.335 231.251 68.431 253.303 C 51.073 301.729 36.056 343.33 61.541 382.514 C 87.448 422.656 131.348 433.381 177.986 444.851 C 204.965 451.484 232.567 458.206 255.999 471.485 C 279.379 458.298 307.035 451.485 334.012 444.851 C 380.651 433.381 424.552 422.654 450.457 382.514 C 475.943 343.329 460.926 301.729 443.566 253.303 Z" style="fill: none; paint-order: fill;"/>
          <path d="M 479.337 401.21 C 445.931 452.686 390.766 466.321 342.227 478.258 C 313.136 485.413 285.739 492.135 265.747 505.903 L 256 512.607 L 246.252 505.903 C 226.26 492.133 198.864 485.413 169.772 478.258 C 121.233 466.321 66.068 452.686 32.662 401.209 C 16.964 376.931 11.073 349.927 14.695 318.831 C 17.75 292.755 27.058 266.769 36.046 241.693 C 46.866 211.506 57.058 183.077 57.058 155.256 C 57.058 138.902 41.523 122.215 36.048 117.625 L 21.662 105.558 L 127.936 -0.714 L 139.829 11.652 C 141.077 12.837 151.349 22.185 169.691 26.703 C 188.087 31.234 214.395 30.879 247.629 12.329 L 256.001 7.666 L 264.373 12.329 C 298.438 31.343 325.241 31.231 343.672 26.356 C 362.046 21.496 371.936 11.89 372.129 11.697 L 384.293 -0.485 L 490.337 105.558 L 475.953 117.624 C 470.115 122.598 454.941 139.052 454.941 155.256 C 454.941 183.075 465.133 211.505 475.953 241.693 C 484.941 266.769 494.249 292.755 497.304 318.831 C 500.927 349.928 495.035 376.931 479.337 401.21 Z M 496.31 318.947 C 493.281 292.981 483.999 267.107 475.011 242.031 C 464.191 211.843 453.941 183.243 453.941 155.256 C 453.941 138.714 469.426 121.875 475.306 116.861 L 488.859 105.494 L 384.293 0.929 L 372.837 12.403 C 372.638 12.603 362.539 22.4 343.928 27.323 C 325.374 32.23 298.196 32.28 263.887 13.203 L 256.001 8.81 L 248.115 13.203 C 214.645 31.816 187.97 32.236 169.452 27.674 C 150.879 23.099 140.351 13.528 139.132 12.369 L 127.922 0.714 L 23.14 105.494 L 36.69 116.859 C 42.211 121.491 58.058 138.562 58.058 155.256 C 58.058 183.245 47.808 211.844 36.988 242.031 C 28 267.107 18.718 292.981 15.689 318.947 C 12.059 349.879 17.872 376.553 33.502 400.665 C 66.608 451.928 121.471 465.349 170.01 477.286 C 199.102 484.441 226.662 491.235 246.818 505.079 L 256 511.393 L 265.181 505.079 C 285.337 491.237 312.898 484.441 341.989 477.286 C 390.528 465.349 445.391 451.928 478.497 400.666 C 494.127 376.553 499.941 349.88 496.31 318.947 Z M 129.519 45.492 C 136.313 49.771 145.575 54.498 157.221 57.904 C 178.986 64.285 213.198 67.037 255.777 45.785 L 256 45.674 L 256.223 45.785 C 298.802 67.039 333.012 64.286 354.779 57.904 C 366.425 54.497 375.687 49.77 382.481 45.492 L 382.818 45.279 L 442.179 104.64 L 441.89 104.99 C 432.993 115.781 422.645 132.329 421.63 152.024 L 421.606 152.497 L 90.392 152.497 L 90.368 152.023 C 89.354 132.33 79.006 115.781 70.108 104.99 L 69.819 104.64 L 129.182 45.279 Z M 71.168 104.705 C 80.036 115.555 90.112 131.773 91.339 151.497 L 420.659 151.497 C 421.883 131.778 431.96 115.56 440.83 104.705 L 382.675 46.55 C 375.872 50.795 366.793 55.423 355.061 58.864 C 333.192 65.264 298.841 68.096 256 46.791 C 213.262 67.974 178.806 65.263 156.939 58.864 C 145.207 55.424 136.128 50.796 129.325 46.55 Z M 451.297 383.058 C 425.092 423.412 380.889 434.353 334.25 445.823 C 307.273 452.457 279.55 459.266 256.246 472.494 L 255.999 472.634 L 255.752 472.494 C 232.448 459.266 204.727 452.456 177.748 445.823 C 131.11 434.353 86.908 423.414 60.701 383.058 C 35.166 343.434 50.131 301.391 67.489 252.965 C 75.393 230.913 83.47 208.377 87.614 185.312 L 87.688 184.9 L 424.309 184.9 L 424.383 185.312 C 428.527 208.377 436.604 230.913 444.508 252.965 C 461.868 301.391 476.833 343.432 451.297 383.058 Z M 443.566 253.303 C 435.662 231.251 427.661 208.903 423.473 185.9 L 88.524 185.9 C 84.336 208.903 76.335 231.251 68.431 253.303 C 51.073 301.729 36.056 343.33 61.541 382.514 C 87.448 422.656 131.348 433.381 177.986 444.851 C 204.965 451.484 232.567 458.206 255.999 471.485 C 279.379 458.298 307.035 451.485 334.012 444.851 C 380.651 433.381 424.552 422.654 450.457 382.514 C 475.943 343.329 460.926 301.729 443.566 253.303 Z" style="fill: none; paint-order: fill;"/>
          <path d="M 479.337 401.21 C 445.931 452.686 390.766 466.321 342.227 478.258 C 313.136 485.413 285.739 492.135 265.747 505.903 L 256 512.607 L 246.252 505.903 C 226.26 492.133 198.864 485.413 169.772 478.258 C 121.233 466.321 66.068 452.686 32.662 401.209 C 16.964 376.931 11.073 349.927 14.695 318.831 C 17.75 292.755 27.058 266.769 36.046 241.693 C 46.866 211.506 57.058 183.077 57.058 155.256 C 57.058 138.902 41.523 122.215 36.048 117.625 L 21.662 105.558 L 127.936 -0.714 L 139.829 11.652 C 141.077 12.837 151.349 22.185 169.691 26.703 C 188.087 31.234 214.395 30.879 247.629 12.329 L 256.001 7.666 L 264.373 12.329 C 298.438 31.343 325.241 31.231 343.672 26.356 C 362.046 21.496 371.936 11.89 372.129 11.697 L 384.293 -0.485 L 490.337 105.558 L 475.953 117.624 C 470.115 122.598 454.941 139.052 454.941 155.256 C 454.941 183.075 465.133 211.505 475.953 241.693 C 484.941 266.769 494.249 292.755 497.304 318.831 C 500.927 349.928 495.035 376.931 479.337 401.21 Z M 496.31 318.947 C 493.281 292.981 483.999 267.107 475.011 242.031 C 464.191 211.843 453.941 183.243 453.941 155.256 C 453.941 138.714 469.426 121.875 475.306 116.861 L 488.859 105.494 L 384.293 0.929 L 372.837 12.403 C 372.638 12.603 362.539 22.4 343.928 27.323 C 325.374 32.23 298.196 32.28 263.887 13.203 L 256.001 8.81 L 248.115 13.203 C 214.645 31.816 187.97 32.236 169.452 27.674 C 150.879 23.099 140.351 13.528 139.132 12.369 L 127.922 0.714 L 23.14 105.494 L 36.69 116.859 C 42.211 121.491 58.058 138.562 58.058 155.256 C 58.058 183.245 47.808 211.844 36.988 242.031 C 28 267.107 18.718 292.981 15.689 318.947 C 12.059 349.879 17.872 376.553 33.502 400.665 C 66.608 451.928 121.471 465.349 170.01 477.286 C 199.102 484.441 226.662 491.235 246.818 505.079 L 256 511.393 L 265.181 505.079 C 285.337 491.237 312.898 484.441 341.989 477.286 C 390.528 465.349 445.391 451.928 478.497 400.666 C 494.127 376.553 499.941 349.88 496.31 318.947 Z M 129.519 45.492 C 136.313 49.771 145.575 54.498 157.221 57.904 C 178.986 64.285 213.198 67.037 255.777 45.785 L 256 45.674 L 256.223 45.785 C 298.802 67.039 333.012 64.286 354.779 57.904 C 366.425 54.497 375.687 49.77 382.481 45.492 L 382.818 45.279 L 442.179 104.64 L 441.89 104.99 C 432.993 115.781 422.645 132.329 421.63 152.024 L 421.606 152.497 L 90.392 152.497 L 90.368 152.023 C 89.354 132.33 79.006 115.781 70.108 104.99 L 69.819 104.64 L 129.182 45.279 Z M 71.168 104.705 C 80.036 115.555 90.112 131.773 91.339 151.497 L 420.659 151.497 C 421.883 131.778 431.96 115.56 440.83 104.705 L 382.675 46.55 C 375.872 50.795 366.793 55.423 355.061 58.864 C 333.192 65.264 298.841 68.096 256 46.791 C 213.262 67.974 178.806 65.263 156.939 58.864 C 145.207 55.424 136.128 50.796 129.325 46.55 Z M 451.297 383.058 C 425.092 423.412 380.889 434.353 334.25 445.823 C 307.273 452.457 279.55 459.266 256.246 472.494 L 255.999 472.634 L 255.752 472.494 C 232.448 459.266 204.727 452.456 177.748 445.823 C 131.11 434.353 86.908 423.414 60.701 383.058 C 35.166 343.434 50.131 301.391 67.489 252.965 C 75.393 230.913 83.47 208.377 87.614 185.312 L 87.688 184.9 L 424.309 184.9 L 424.383 185.312 C 428.527 208.377 436.604 230.913 444.508 252.965 C 461.868 301.391 476.833 343.432 451.297 383.058 Z M 443.566 253.303 C 435.662 231.251 427.661 208.903 423.473 185.9 L 88.524 185.9 C 84.336 208.903 76.335 231.251 68.431 253.303 C 51.073 301.729 36.056 343.33 61.541 382.514 C 87.448 422.656 131.348 433.381 177.986 444.851 C 204.965 451.484 232.567 458.206 255.999 471.485 C 279.379 458.298 307.035 451.485 334.012 444.851 C 380.651 433.381 424.552 422.654 450.457 382.514 C 475.943 343.329 460.926 301.729 443.566 253.303 Z" style="fill: none; paint-order: fill;"/>
          <path d="M 479.337 401.21 C 445.931 452.686 390.766 466.321 342.227 478.258 C 313.136 485.413 285.739 492.135 265.747 505.903 L 256 512.607 L 246.252 505.903 C 226.26 492.133 198.864 485.413 169.772 478.258 C 121.233 466.321 66.068 452.686 32.662 401.209 C 16.964 376.931 11.073 349.927 14.695 318.831 C 17.75 292.755 27.058 266.769 36.046 241.693 C 46.866 211.506 57.058 183.077 57.058 155.256 C 57.058 138.902 41.523 122.215 36.048 117.625 L 21.662 105.558 L 127.936 -0.714 L 139.829 11.652 C 141.077 12.837 151.349 22.185 169.691 26.703 C 188.087 31.234 214.395 30.879 247.629 12.329 L 256.001 7.666 L 264.373 12.329 C 298.438 31.343 325.241 31.231 343.672 26.356 C 362.046 21.496 371.936 11.89 372.129 11.697 L 384.293 -0.485 L 490.337 105.558 L 475.953 117.624 C 470.115 122.598 454.941 139.052 454.941 155.256 C 454.941 183.075 465.133 211.505 475.953 241.693 C 484.941 266.769 494.249 292.755 497.304 318.831 C 500.927 349.928 495.035 376.931 479.337 401.21 Z M 496.31 318.947 C 493.281 292.981 483.999 267.107 475.011 242.031 C 464.191 211.843 453.941 183.243 453.941 155.256 C 453.941 138.714 469.426 121.875 475.306 116.861 L 488.859 105.494 L 384.293 0.929 L 372.837 12.403 C 372.638 12.603 362.539 22.4 343.928 27.323 C 325.374 32.23 298.196 32.28 263.887 13.203 L 256.001 8.81 L 248.115 13.203 C 214.645 31.816 187.97 32.236 169.452 27.674 C 150.879 23.099 140.351 13.528 139.132 12.369 L 127.922 0.714 L 23.14 105.494 L 36.69 116.859 C 42.211 121.491 58.058 138.562 58.058 155.256 C 58.058 183.245 47.808 211.844 36.988 242.031 C 28 267.107 18.718 292.981 15.689 318.947 C 12.059 349.879 17.872 376.553 33.502 400.665 C 66.608 451.928 121.471 465.349 170.01 477.286 C 199.102 484.441 226.662 491.235 246.818 505.079 L 256 511.393 L 265.181 505.079 C 285.337 491.237 312.898 484.441 341.989 477.286 C 390.528 465.349 445.391 451.928 478.497 400.666 C 494.127 376.553 499.941 349.88 496.31 318.947 Z M 129.519 45.492 C 136.313 49.771 145.575 54.498 157.221 57.904 C 178.986 64.285 213.198 67.037 255.777 45.785 L 256 45.674 L 256.223 45.785 C 298.802 67.039 333.012 64.286 354.779 57.904 C 366.425 54.497 375.687 49.77 382.481 45.492 L 382.818 45.279 L 442.179 104.64 L 441.89 104.99 C 432.993 115.781 422.645 132.329 421.63 152.024 L 421.606 152.497 L 90.392 152.497 L 90.368 152.023 C 89.354 132.33 79.006 115.781 70.108 104.99 L 69.819 104.64 L 129.182 45.279 Z M 71.168 104.705 C 80.036 115.555 90.112 131.773 91.339 151.497 L 420.659 151.497 C 421.883 131.778 431.96 115.56 440.83 104.705 L 382.675 46.55 C 375.872 50.795 366.793 55.423 355.061 58.864 C 333.192 65.264 298.841 68.096 256 46.791 C 213.262 67.974 178.806 65.263 156.939 58.864 C 145.207 55.424 136.128 50.796 129.325 46.55 Z M 451.297 383.058 C 425.092 423.412 380.889 434.353 334.25 445.823 C 307.273 452.457 279.55 459.266 256.246 472.494 L 255.999 472.634 L 255.752 472.494 C 232.448 459.266 204.727 452.456 177.748 445.823 C 131.11 434.353 86.908 423.414 60.701 383.058 C 35.166 343.434 50.131 301.391 67.489 252.965 C 75.393 230.913 83.47 208.377 87.614 185.312 L 87.688 184.9 L 424.309 184.9 L 424.383 185.312 C 428.527 208.377 436.604 230.913 444.508 252.965 C 461.868 301.391 476.833 343.432 451.297 383.058 Z M 443.566 253.303 C 435.662 231.251 427.661 208.903 423.473 185.9 L 88.524 185.9 C 84.336 208.903 76.335 231.251 68.431 253.303 C 51.073 301.729 36.056 343.33 61.541 382.514 C 87.448 422.656 131.348 433.381 177.986 444.851 C 204.965 451.484 232.567 458.206 255.999 471.485 C 279.379 458.298 307.035 451.485 334.012 444.851 C 380.651 433.381 424.552 422.654 450.457 382.514 C 475.943 343.329 460.926 301.729 443.566 253.303 Z" style="fill: none; paint-order: fill;"/>
          <path d="M 479.337 401.21 C 445.931 452.686 390.766 466.321 342.227 478.258 C 313.136 485.413 285.739 492.135 265.747 505.903 L 256 512.607 L 246.252 505.903 C 226.26 492.133 198.864 485.413 169.772 478.258 C 121.233 466.321 66.068 452.686 32.662 401.209 C 16.964 376.931 11.073 349.927 14.695 318.831 C 17.75 292.755 27.058 266.769 36.046 241.693 C 46.866 211.506 57.058 183.077 57.058 155.256 C 57.058 138.902 41.523 122.215 36.048 117.625 L 21.662 105.558 L 127.936 -0.714 L 139.829 11.652 C 141.077 12.837 151.349 22.185 169.691 26.703 C 188.087 31.234 214.395 30.879 247.629 12.329 L 256.001 7.666 L 264.373 12.329 C 298.438 31.343 325.241 31.231 343.672 26.356 C 362.046 21.496 371.936 11.89 372.129 11.697 L 384.293 -0.485 L 490.337 105.558 L 475.953 117.624 C 470.115 122.598 454.941 139.052 454.941 155.256 C 454.941 183.075 465.133 211.505 475.953 241.693 C 484.941 266.769 494.249 292.755 497.304 318.831 C 500.927 349.928 495.035 376.931 479.337 401.21 Z M 496.31 318.947 C 493.281 292.981 483.999 267.107 475.011 242.031 C 464.191 211.843 453.941 183.243 453.941 155.256 C 453.941 138.714 469.426 121.875 475.306 116.861 L 488.859 105.494 L 384.293 0.929 L 372.837 12.403 C 372.638 12.603 362.539 22.4 343.928 27.323 C 325.374 32.23 298.196 32.28 263.887 13.203 L 256.001 8.81 L 248.115 13.203 C 214.645 31.816 187.97 32.236 169.452 27.674 C 150.879 23.099 140.351 13.528 139.132 12.369 L 127.922 0.714 L 23.14 105.494 L 36.69 116.859 C 42.211 121.491 58.058 138.562 58.058 155.256 C 58.058 183.245 47.808 211.844 36.988 242.031 C 28 267.107 18.718 292.981 15.689 318.947 C 12.059 349.879 17.872 376.553 33.502 400.665 C 66.608 451.928 121.471 465.349 170.01 477.286 C 199.102 484.441 226.662 491.235 246.818 505.079 L 256 511.393 L 265.181 505.079 C 285.337 491.237 312.898 484.441 341.989 477.286 C 390.528 465.349 445.391 451.928 478.497 400.666 C 494.127 376.553 499.941 349.88 496.31 318.947 Z M 129.519 45.492 C 136.313 49.771 145.575 54.498 157.221 57.904 C 178.986 64.285 213.198 67.037 255.777 45.785 L 256 45.674 L 256.223 45.785 C 298.802 67.039 333.012 64.286 354.779 57.904 C 366.425 54.497 375.687 49.77 382.481 45.492 L 382.818 45.279 L 442.179 104.64 L 441.89 104.99 C 432.993 115.781 422.645 132.329 421.63 152.024 L 421.606 152.497 L 90.392 152.497 L 90.368 152.023 C 89.354 132.33 79.006 115.781 70.108 104.99 L 69.819 104.64 L 129.182 45.279 Z M 71.168 104.705 C 80.036 115.555 90.112 131.773 91.339 151.497 L 420.659 151.497 C 421.883 131.778 431.96 115.56 440.83 104.705 L 382.675 46.55 C 375.872 50.795 366.793 55.423 355.061 58.864 C 333.192 65.264 298.841 68.096 256 46.791 C 213.262 67.974 178.806 65.263 156.939 58.864 C 145.207 55.424 136.128 50.796 129.325 46.55 Z M 451.297 383.058 C 425.092 423.412 380.889 434.353 334.25 445.823 C 307.273 452.457 279.55 459.266 256.246 472.494 L 255.999 472.634 L 255.752 472.494 C 232.448 459.266 204.727 452.456 177.748 445.823 C 131.11 434.353 86.908 423.414 60.701 383.058 C 35.166 343.434 50.131 301.391 67.489 252.965 C 75.393 230.913 83.47 208.377 87.614 185.312 L 87.688 184.9 L 424.309 184.9 L 424.383 185.312 C 428.527 208.377 436.604 230.913 444.508 252.965 C 461.868 301.391 476.833 343.432 451.297 383.058 Z M 443.566 253.303 C 435.662 231.251 427.661 208.903 423.473 185.9 L 88.524 185.9 C 84.336 208.903 76.335 231.251 68.431 253.303 C 51.073 301.729 36.056 343.33 61.541 382.514 C 87.448 422.656 131.348 433.381 177.986 444.851 C 204.965 451.484 232.567 458.206 255.999 471.485 C 279.379 458.298 307.035 451.485 334.012 444.851 C 380.651 433.381 424.552 422.654 450.457 382.514 C 475.943 343.329 460.926 301.729 443.566 253.303 Z" style="fill: none; paint-order: fill;"/>
        </g>
      </g>
      <title id="bx-title-2">Route 66</title>
      <g transform="matrix(1.862519, 0, 0, 1.862519, -214.210495, -569.09259)"/>
    </g>
  </g>
  <g transform="matrix(1, 0, 0, 1, -328.3389892578126, 472.02737426757807)">
    <g transform="matrix(1, 0, 0, 1, -67.22702, 45.012684)">
      <g transform="matrix(1, 0, 0, 1, -33.623478, -88.040451)">
        <path d="M 660.5 656.877 L 720.134 656.877 L 720.134 656.918 L 759.965 656.918 L 857.369 772.367 L 889.837 810.851 L 810.569 810.851 L 787.96 784.053 L 765.352 757.256 L 742.743 730.458 L 720.134 703.661 L 720.134 810.404 L 660.5 810.404 Z M 650.94 556.284 L 692.836 532.548 L 713.784 520.679 L 734.732 508.811 L 734.988 556.885 L 735.117 580.921 L 735.245 604.958 L 714.169 592.79 L 693.092 580.621 L 672.016 568.453 Z" style="fill: rgb(52, 66, 114); stroke: rgb(52, 66, 114);"/>
      </g>
      <path d="M 828.083 533.023 C 828.083 559.809 817.226 584.059 799.673 601.613 C 782.119 619.166 757.869 630.023 731.083 630.023 C 725.863 630.023 720.738 629.611 715.741 628.816 C 710.744 628.022 705.874 626.847 701.162 625.32 L 701.162 597.161 L 701.162 569.002 C 701.162 569.002 708.85 569.006 716.589 569.007 C 724.328 569.009 732.118 569.009 732.324 569.002 L 732.4 569.002 L 732.476 569.002 L 732.476 568.999 L 732.476 568.997 C 742.094 568.631 750.746 564.491 756.993 558.016 C 763.24 551.541 767.083 542.731 767.083 533.023 C 767.083 523.314 763.24 514.504 756.992 508.029 C 750.745 501.554 742.092 497.414 732.473 497.049 L 732.473 497.03 L 732.473 497.011 L 716.818 497.011 L 701.162 497.011 L 701.162 467.579 L 701.162 438.148 C 716.485 437.91 721.503 437.776 723.997 437.701 C 726.49 437.626 726.458 437.61 731.678 437.61 C 758.464 437.61 782.565 448.07 799.97 465.227 C 817.375 482.384 828.083 506.237 828.083 533.023" style="fill: rgb(52, 66, 114); stroke: rgb(52, 66, 114);"/>
    </g>
    <rect x="589.163" y="654.882" width="66.946" height="18.882" style="fill: rgb(52, 66, 114); stroke: rgb(52, 66, 114);"/>
  </g>
</svg>