<?xml version="1.0" encoding="utf-8"?>
<svg viewBox="-14.673 -12.356 48.34 48.527" xmlns="http://www.w3.org/2000/svg">
  <g stroke-width="0" transform="matrix(1, 0, 0, 1, 651.143233, 225.999997)"/>
  <g stroke-linecap="round" stroke-linejoin="round" stroke="#CCCCCC" stroke-width="0.576" transform="matrix(1, 0, 0, 1, 651.143233, 225.999997)"/>
  <g stroke-width="0" transform="matrix(1, 0, 0, 1, 229.939819, 220.985672)"/>
  <g stroke-linecap="round" stroke-linejoin="round" stroke="#CCCCCC" stroke-width="0.576" transform="matrix(1, 0, 0, 1, 229.939819, 220.985672)"/>
  <path d="M 23.729 -6.965 L -5.678 -6.965 C -6.826 -6.965 -7.758 -6.047 -7.762 -4.907 L -7.762 13.394 C -7.769 13.965 -7.299 14.429 -6.721 14.422 L -0.993 14.422 C -0.418 14.414 0.052 14.878 0.048 15.451 L 0.048 16.996 C 0.042 17.567 0.512 18.031 1.089 18.025 L 16.961 18.025 C 17.536 18.031 18.006 17.567 18.002 16.996 L 18.002 15.451 C 17.995 14.878 18.465 14.414 19.042 14.422 L 25.291 14.422 C 25.575 14.415 25.805 14.19 25.811 13.908 L 25.811 -4.907 C 25.805 -6.047 24.874 -6.965 23.729 -6.965 Z M 2.306 1.366 C 1.391 1.366 0.632 0.456 0.632 -0.695 L 0.632 -0.738 C 0.632 -1.89 1.391 -2.801 2.306 -2.801 L 15.725 -2.801 C 16.659 -2.801 17.419 -1.867 17.419 -0.718 C 17.419 0.432 16.659 1.366 15.725 1.366 L 2.306 1.366 Z M 2.306 9.695 C 1.391 9.695 0.632 8.784 0.632 7.635 L 0.632 7.589 C 0.632 6.44 1.391 5.53 2.306 5.53 L 15.725 5.53 C 16.659 5.53 17.419 6.463 17.419 7.612 C 17.419 8.761 16.659 9.695 15.725 9.695 L 2.306 9.695 Z M 25.811 19.107 L 25.811 28.396 C 25.811 29.562 24.874 30.52 23.729 30.52 L -5.678 30.52 C -6.824 30.52 -7.762 29.562 -7.762 28.396 L -7.762 19.087 C -7.762 18.502 -7.296 18.025 -6.721 18.025 L -4.637 18.025 C -4.054 18.025 -3.597 18.492 -3.597 19.087 L -3.597 20.683 C -3.597 21.275 -3.14 21.744 -2.557 21.744 L 20.607 21.744 C 21.189 21.734 21.656 21.259 21.649 20.683 L 21.649 19.107 C 21.649 18.512 22.125 18.025 22.71 18.025 L 24.752 18.025 C 25.335 18.025 25.814 18.512 25.814 19.107" style="fill: rgb(255, 255, 255);"/>
</svg>